<svg id="SvgjsSvg1000" xmlns="http://www.w3.org/2000/svg" version="1.1" xmlns:xlink="http://www.w3.org/1999/xlink" xmlns:svgjs="http://svgjs.com/svgjs" width="17" height="17" viewBox="0 0 17 17"><title>Combined Shape</title><desc>Created with Avocode.</desc><defs id="SvgjsDefs1001"></defs><path id="SvgjsPath1007" d="M103 109.5C103 104.81 106.81 101 111.5 101C116.19 101 120 104.81 120 109.5C120 114.19 116.19 118 111.5 118C106.81 118 103 114.19 103 109.5ZM104 109.5C104 113.64 107.36 117 111.5 117C115.64 117 119 113.64 119 109.5C119 105.36 115.64 102 111.5 102C107.36 102 104 105.36 104 109.5ZM111 112V110H109C108.72 110 108.5 109.78 108.5 109.5C108.5 109.22 108.72 109 109 109H111V107C111 106.72 111.22 106.5 111.5 106.5C111.78 106.5 112 106.72 112 107V109H114C114.28 109 114.5 109.22 114.5 109.5C114.5 109.78 114.28 110 114 110H112V112C112 112.28 111.78 112.5 111.5 112.5C111.22 112.5 111 112.28 111 112Z " fill="#ffffff" fill-opacity="1" transform="matrix(1,0,0,1,-103,-101)"></path></svg>