<svg id="SvgjsSvg1013" xmlns="http://www.w3.org/2000/svg" version="1.1" xmlns:xlink="http://www.w3.org/1999/xlink" xmlns:svgjs="http://svgjs.com/svgjs" width="24" height="24" viewBox="0 0 24 24"><title>Combined Shape</title><desc>Created with Avocode.</desc><defs id="SvgjsDefs1014"></defs><path id="SvgjsPath1015" d="M678 519C678 512.38 683.38 507 690 507C696.62 507 702 512.38 702 519C702 525.62 696.62 531 690 531C683.38 531 678 525.62 678 519ZM679.41 519C679.41 524.84 684.16 529.59 690 529.59C695.84 529.59 700.59 524.84 700.59 519C700.59 513.16 695.84 508.41 690 508.41C684.16 508.41 679.41 513.1600000000001 679.41 519ZM689.29 522.53V519.7099999999999H686.4699999999999C686.0799999999999 519.7099999999999 685.7599999999999 519.3899999999999 685.7599999999999 518.9999999999999C685.7599999999999 518.6099999999999 686.0799999999999 518.2899999999998 686.4699999999999 518.2899999999998H689.29V515.4699999999998C689.29 515.0799999999998 689.61 514.7599999999998 690 514.7599999999998C690.39 514.7599999999998 690.71 515.0799999999998 690.71 515.4699999999998V518.2899999999998H693.5300000000001C693.9200000000001 518.2899999999998 694.2400000000001 518.6099999999999 694.2400000000001 518.9999999999999C694.2400000000001 519.3899999999999 693.9200000000001 519.7099999999999 693.5300000000001 519.7099999999999H690.71V522.53C690.71 522.92 690.39 523.24 690 523.24C689.61 523.24 689.29 522.92 689.29 522.53Z " fill="#4a4a4a" fill-opacity="1" transform="matrix(1,0,0,1,-678,-507)"></path></svg>