<svg id="SvgjsSvg1008" xmlns="http://www.w3.org/2000/svg" version="1.1" xmlns:xlink="http://www.w3.org/1999/xlink" xmlns:svgjs="http://svgjs.com/svgjs" width="17" height="17" viewBox="0 0 17 17"><title>Combined Shape</title><desc>Created with Avocode.</desc><defs id="SvgjsDefs1009"></defs><path id="SvgjsPath1010" d="M896 110.5C896 114.64 899.36 118 903.5 118C907.64 118 911 114.64 911 110.5C911 106.36 907.64 103 903.5 103C899.36 103 896 106.36 896 110.5ZM895 110.5C895 105.81 898.81 102 903.5 102C908.19 102 912 105.81 912 110.5C912 115.19 908.19 119 903.5 119C898.81 119 895 115.19 895 110.5ZM903.5 112.58C903.84 112.58 904.18 112.45 904.44 112.19L906.35 110.28C906.5500000000001 110.08 906.5500000000001 109.76 906.35 109.57000000000001C906.16 109.37 905.84 109.37 905.65 109.57000000000001L903.74 111.48C903.61 111.61 903.39 111.61 903.26 111.48L901.35 109.57000000000001C901.16 109.37 900.84 109.37 900.65 109.57000000000001C900.4499999999999 109.76 900.4499999999999 110.08000000000001 900.65 110.28L902.56 112.19C902.8199999999999 112.45 903.16 112.58 903.5 112.58Z " fill="#1b1815" fill-opacity="1" transform="matrix(1,0,0,1,-895,-102)"></path></svg>