<svg id="SvgjsSvg1024" xmlns="http://www.w3.org/2000/svg" version="1.1" xmlns:xlink="http://www.w3.org/1999/xlink" xmlns:svgjs="http://svgjs.com/svgjs" width="17" height="17" viewBox="0 0 17 17"><title>017__circle_close</title><desc>Created with Avocode.</desc><defs id="SvgjsDefs1025"></defs><path id="SvgjsPath1026" d="M1004 339.5C1004 343.64 1007.36 347 1011.5 347C1015.64 347 1019 343.64 1019 339.5C1019 335.36 1015.64 332 1011.5 332C1007.36 332 1004 335.36 1004 339.5ZM1003 339.5C1003 334.81 1006.81 331 1011.5 331C1016.19 331 1020 334.81 1020 339.5C1020 344.19 1016.19 348 1011.5 348C1006.81 348 1003 344.19 1003 339.5Z " fill="#1b1815" fill-opacity="1" transform="matrix(1,0,0,1,-1003,-331)"></path><path id="SvgjsPath1027" d="M1013.67 342.17C1013.54 342.17 1013.41 342.12 1013.31 342.02000000000004L1009.15 337.85C1008.9499999999999 337.66 1008.9499999999999 337.34000000000003 1009.15 337.15000000000003C1009.34 336.95000000000005 1009.66 336.95000000000005 1009.85 337.15000000000003L1014.02 341.31000000000006C1014.22 341.51000000000005 1014.22 341.83000000000004 1014.02 342.02000000000004C1013.92 342.12000000000006 1013.79 342.17 1013.67 342.17 " fill="#1b1815" fill-opacity="1" transform="matrix(1,0,0,1,-1003,-331)"></path><path id="SvgjsPath1028" d="M1009.5 342.17C1009.37 342.17 1009.24 342.12 1009.15 342.02000000000004C1008.9499999999999 341.83000000000004 1008.9499999999999 341.51000000000005 1009.15 341.31000000000006L1013.31 337.15000000000003C1013.51 336.95000000000005 1013.8199999999999 336.95000000000005 1014.02 337.15000000000003C1014.22 337.34000000000003 1014.22 337.66 1014.02 337.85L1009.85 342.02000000000004C1009.76 342.12000000000006 1009.63 342.17 1009.5 342.17 " fill="#1b1815" fill-opacity="1" transform="matrix(1,0,0,1,-1003,-331)"></path></svg>