<svg id="SvgjsSvg1042" xmlns="http://www.w3.org/2000/svg" version="1.1" xmlns:xlink="http://www.w3.org/1999/xlink" xmlns:svgjs="http://svgjs.com/svgjs" width="20" height="11" viewBox="0 0 20 11"><title>128__eye</title><desc>Created with Avocode.</desc><defs id="SvgjsDefs1043"></defs><path id="SvgjsPath1044" d="M707.19 886.04C706.94 886.3 706.94 886.6999999999999 707.19 886.9599999999999C708.3800000000001 888.17 711.5200000000001 890.9999999999999 715.1 890.9999999999999C718.6800000000001 890.9999999999999 721.83 888.1699999999998 723.01 886.9599999999999C723.26 886.6999999999999 723.26 886.3 723.01 886.04C721.83 884.8299999999999 718.68 882 715.1 882C711.52 882 708.38 884.83 707.19 886.04ZM706.47 887.66C705.84 887.01 705.84 885.99 706.47 885.35C708.0600000000001 883.72 711.28 881 715.1 881C718.9200000000001 881 722.14 883.72 723.73 885.35C724.36 885.99 724.36 887.01 723.73 887.66C722.14 889.28 718.9200000000001 892 715.1 892C711.28 892 708.0600000000001 889.28 706.47 887.66Z " fill="#ffffff" fill-opacity="1" transform="matrix(1,0,0,1,-705,-881)"></path><path id="SvgjsPath1045" d="M714 886.5C714 887.33 714.67 888 715.5 888C716.33 888 717 887.33 717 886.5C717 885.67 716.33 885 715.5 885C714.67 885 714 885.67 714 886.5ZM713 886.5C713 885.12 714.12 884 715.5 884C716.88 884 718 885.12 718 886.5C718 887.88 716.88 889 715.5 889C714.12 889 713 887.88 713 886.5Z " fill="#ffffff" fill-opacity="1" transform="matrix(1,0,0,1,-705,-881)"></path></svg>