<svg id="SvgjsSvg1038" xmlns="http://www.w3.org/2000/svg" version="1.1" xmlns:xlink="http://www.w3.org/1999/xlink" xmlns:svgjs="http://svgjs.com/svgjs" width="32" height="19" viewBox="0 0 32 19"><title>128__eye</title><desc>Created with Avocode.</desc><defs id="SvgjsDefs1039"></defs><path id="SvgjsPath1040" d="M441 140.49C440.58 140.92000000000002 440.58 141.60000000000002 441 142.03C443 144.08 448.3 148.84 454.33 148.84C460.35999999999996 148.84 465.65 144.08 467.65 142.03C468.07 141.6 468.07 140.92 467.65 140.49C465.65 138.45000000000002 460.35999999999996 133.68 454.33 133.68C448.3 133.68 443 138.45000000000002 441 140.49ZM439.8 143.21C438.73 142.12 438.73 140.41 439.8 139.32000000000002C442.46000000000004 136.58 447.90000000000003 132.00000000000003 454.33 132.00000000000003C460.76 132.00000000000003 466.19 136.58000000000004 468.84999999999997 139.32000000000002C469.91999999999996 140.41000000000003 469.91999999999996 142.12000000000003 468.85999999999996 143.21C466.18999999999994 145.94 460.75999999999993 150.53 454.33 150.53C447.9 150.53 442.46 145.94 439.8 143.21Z " fill="#d0021b" fill-opacity="1" transform="matrix(1,0,0,1,-438,-132)"></path><path id="SvgjsPath1041" d="M451.68 141.21C451.68 142.6 452.82 143.74 454.21 143.74C455.59999999999997 143.74 456.73999999999995 142.60000000000002 456.73999999999995 141.21C456.73999999999995 139.82000000000002 455.59999999999997 138.68 454.21 138.68C452.82 138.68 451.68 139.82 451.68 141.21ZM450 141.21C450 138.89000000000001 451.89 137 454.21 137C456.53 137 458.41999999999996 138.89 458.41999999999996 141.21C458.41999999999996 143.53 456.53 145.42000000000002 454.21 145.42000000000002C451.89 145.42000000000002 450 143.53000000000003 450 141.21Z " fill="#d0021b" fill-opacity="1" transform="matrix(1,0,0,1,-438,-132)"></path></svg>