<svg id="SvgjsSvg1012" xmlns="http://www.w3.org/2000/svg" version="1.1" xmlns:xlink="http://www.w3.org/1999/xlink" xmlns:svgjs="http://svgjs.com/svgjs" width="20" height="11" viewBox="0 0 20 11"><title>128__eye</title><desc>Created with Avocode.</desc><defs id="SvgjsDefs1013"></defs><path id="SvgjsPath1014" d="M316.19 109.04C315.94 109.30000000000001 315.94 109.7 316.19 109.96000000000001C317.38 111.17 320.52 114.00000000000001 324.1 114.00000000000001C327.68 114.00000000000001 330.83000000000004 111.17000000000002 332.01000000000005 109.96000000000001C332.26000000000005 109.7 332.26000000000005 109.30000000000001 332.01000000000005 109.04C330.83000000000004 107.83000000000001 327.68000000000006 105 324.1 105C320.52000000000004 105 317.38 107.83 316.19 109.04ZM315.47 110.66C314.84000000000003 110.00999999999999 314.84000000000003 108.99 315.47 108.35C317.06 106.72 320.28000000000003 104 324.1 104C327.92 104 331.14000000000004 106.72 332.73 108.35C333.36 108.99 333.36 110.00999999999999 332.73 110.66C331.14000000000004 112.28 327.92 115 324.1 115C320.28000000000003 115 317.06 112.28 315.47 110.66Z " fill="#ffffff" fill-opacity="1" transform="matrix(1,0,0,1,-314,-104)"></path><path id="SvgjsPath1015" d="M323 109.5C323 110.33 323.67 111 324.5 111C325.33 111 326 110.33 326 109.5C326 108.67 325.33 108 324.5 108C323.67 108 323 108.67 323 109.5ZM322 109.5C322 108.12 323.12 107 324.5 107C325.88 107 327 108.12 327 109.5C327 110.88 325.88 112 324.5 112C323.12 112 322 110.88 322 109.5Z " fill="#ffffff" fill-opacity="1" transform="matrix(1,0,0,1,-314,-104)"></path></svg>