<svg id="SvgjsSvg1032" xmlns="http://www.w3.org/2000/svg" version="1.1" xmlns:xlink="http://www.w3.org/1999/xlink" xmlns:svgjs="http://svgjs.com/svgjs" width="19" height="24" viewBox="0 0 19 24"><title>Combined Shape</title><desc>Created with Avocode.</desc><defs id="SvgjsDefs1033"></defs><path id="SvgjsPath1034" d="M441.38 132.07V134.15H440.69V135.53H442.19417L447.15 141.3C447.46999999999997 141.67000000000002 447.65 142.16000000000003 447.65 142.65V151.92000000000002C447.65 152.49 448.25 152.75000000000003 448.65999999999997 152.54000000000002L450.04999999999995 151.82000000000002C450.27 151.70000000000002 450.41999999999996 151.46 450.41999999999996 151.20000000000002V142.65C450.41999999999996 142.16 450.59 141.67000000000002 450.91999999999996 141.3L455.87458 135.53H457.38V134.15H456.67604L456.63 132.06C456.62 131.69 456.31 131.38 455.94 131.38H442.07C441.69 131.38 441.38 131.69 441.38 132.07ZM441.38 134.33C441.38 134.49 441.44 134.66000000000003 441.55 134.78L442.19417 135.53H455.87458L456.51 134.79C456.62 134.66 456.68 134.5 456.68 134.32999999999998L456.67604 134.14999999999998H441.38ZM446.27 151.92V142.64999999999998C446.27 142.48 446.21 142.31999999999996 446.09999999999997 142.2L440.49999999999994 135.67999999999998C440.17999999999995 135.30999999999997 439.99999999999994 134.82999999999998 439.99999999999994 134.32999999999998V132.07C439.99999999999994 130.93 440.92999999999995 130 442.06999999999994 130H455.93999999999994C457.05999999999995 130 457.98999999999995 130.91 458.00999999999993 132.03L458.05999999999995 134.3C458.06999999999994 134.81 457.88999999999993 135.31 457.55999999999995 135.70000000000002L451.96999999999997 142.20000000000002C451.85999999999996 142.32000000000002 451.79999999999995 142.48000000000002 451.79999999999995 142.65V151.20000000000002C451.79999999999995 151.98000000000002 451.36999999999995 152.68 450.68999999999994 153.04000000000002L449.29999999999995 153.76000000000002C448.99999999999994 153.92000000000002 448.67999999999995 154.00000000000003 448.34 154.00000000000003C447.2 154.00000000000003 446.27 153.07000000000002 446.27 151.92000000000002Z " fill="#7ed321" fill-opacity="1" transform="matrix(1,0,0,1,-440,-130)"></path></svg>