<svg id="SvgjsSvg1035" xmlns="http://www.w3.org/2000/svg" version="1.1" xmlns:xlink="http://www.w3.org/1999/xlink" xmlns:svgjs="http://svgjs.com/svgjs" width="13" height="16" viewBox="0 0 13 16"><title>Combined Shape</title><desc>Created with Avocode.</desc><defs id="SvgjsDefs1036"></defs><path id="SvgjsPath1037" d="M759.92 849.38V850.77H759.4599999999999V851.6899999999999H760.46088L763.77 855.53C763.98 855.78 764.1 856.1 764.1 856.43V862.62C764.1 862.99 764.5 863.17 764.77 863.02L765.6999999999999 862.54C765.8499999999999 862.4599999999999 765.9399999999999 862.31 765.9399999999999 862.14V856.43C765.9399999999999 856.0999999999999 766.06 855.78 766.28 855.53L769.58028 851.6899999999999H770.59V850.77H770.1178100000001L770.09 849.37C770.08 849.12 769.87 848.92 769.63 848.92H760.38C760.13 848.92 759.92 849.13 759.92 849.38ZM759.92 850.89C759.92 851 759.9599999999999 851.1 760.03 851.1899999999999L760.46088 851.6899999999999H769.58028L770.01 851.1899999999999C770.08 851.1099999999999 770.12 850.9999999999999 770.12 850.88L770.11781 850.77H759.92ZM763.18 862.62V856.43C763.18 856.3199999999999 763.14 856.2199999999999 763.0699999999999 856.13L759.3299999999999 851.79C759.1199999999999 851.54 758.9999999999999 851.2199999999999 758.9999999999999 850.89V849.38C758.9999999999999 848.62 759.6199999999999 848 760.3799999999999 848H769.6299999999999C770.3699999999999 848 770.9899999999999 848.61 771.0099999999999 849.35L771.0399999999998 850.87C771.0499999999998 851.21 770.9299999999998 851.54 770.6999999999998 851.8L766.9799999999998 856.13C766.9099999999997 856.22 766.8699999999998 856.32 766.8699999999998 856.43V862.14C766.8699999999998 862.65 766.5799999999998 863.12 766.1199999999998 863.36L765.1999999999998 863.84C764.9999999999998 863.95 764.7799999999999 864 764.5599999999998 864C763.7999999999998 864 763.1799999999998 863.38 763.1799999999998 862.62Z " fill="#ffffff" fill-opacity="1" transform="matrix(1,0,0,1,-759,-848)"></path></svg>