<svg id="SvgjsSvg1029" xmlns="http://www.w3.org/2000/svg" version="1.1" xmlns:xlink="http://www.w3.org/1999/xlink" xmlns:svgjs="http://svgjs.com/svgjs" width="19" height="24" viewBox="0 0 19 24"><title>Combined Shape</title><desc>Created with Avocode.</desc><defs id="SvgjsDefs1030"></defs><path id="SvgjsPath1031" d="M442.38 163.07V165.15H441.69V166.53H443.19417L448.15 172.3C448.46999999999997 172.67000000000002 448.65 173.16000000000003 448.65 173.65V182.92000000000002C448.65 183.49 449.25 183.75000000000003 449.65999999999997 183.54000000000002L451.04999999999995 182.82000000000002C451.27 182.70000000000002 451.41999999999996 182.46 451.41999999999996 182.20000000000002V173.65C451.41999999999996 173.16 451.59 172.67000000000002 451.91999999999996 172.3L456.87458 166.53H458.38V165.15H457.67604L457.63 163.06C457.62 162.69 457.31 162.38 456.94 162.38H443.07C442.69 162.38 442.38 162.69 442.38 163.07ZM442.38 165.33C442.38 165.49 442.44 165.66000000000003 442.55 165.78L443.19417 166.53H456.87458L457.51 165.79C457.62 165.66 457.68 165.5 457.68 165.32999999999998L457.67604 165.14999999999998H442.38ZM447.27 182.92V173.64999999999998C447.27 173.48 447.21 173.31999999999996 447.09999999999997 173.2L441.49999999999994 166.67999999999998C441.17999999999995 166.30999999999997 440.99999999999994 165.82999999999998 440.99999999999994 165.32999999999998V163.07C440.99999999999994 161.93 441.92999999999995 161 443.06999999999994 161H456.93999999999994C458.05999999999995 161 458.98999999999995 161.91 459.00999999999993 163.03L459.05999999999995 165.3C459.06999999999994 165.81 458.88999999999993 166.31 458.55999999999995 166.70000000000002L452.96999999999997 173.20000000000002C452.85999999999996 173.32000000000002 452.79999999999995 173.48000000000002 452.79999999999995 173.65V182.20000000000002C452.79999999999995 182.98000000000002 452.36999999999995 183.68 451.68999999999994 184.04000000000002L450.29999999999995 184.76000000000002C449.99999999999994 184.92000000000002 449.67999999999995 185.00000000000003 449.34 185.00000000000003C448.2 185.00000000000003 447.27 184.07000000000002 447.27 182.92000000000002Z " fill="#4a4a4a" fill-opacity="1" transform="matrix(1,0,0,1,-441,-161)"></path></svg>