<svg id="SvgjsSvg1051" xmlns="http://www.w3.org/2000/svg" version="1.1" xmlns:xlink="http://www.w3.org/1999/xlink" xmlns:svgjs="http://svgjs.com/svgjs" width="24" height="24" viewBox="0 0 24 24"><title>041__help</title><desc>Created with Avocode.</desc><defs id="SvgjsDefs1052"></defs><path id="SvgjsPath1053" d="M279.06 472.47C278.68 472.47 278.36 472.15000000000003 278.36 471.76000000000005C278.36 470.4800000000001 278.99 469.24000000000007 280.1 468.36000000000007C280.59000000000003 467.9600000000001 280.81 467.3400000000001 280.68 466.70000000000005C280.55 466.08000000000004 280.05 465.58000000000004 279.43 465.45000000000005C278.92 465.34000000000003 278.42 465.46000000000004 278.02 465.78000000000003C277.63 466.1 277.40999999999997 466.57000000000005 277.40999999999997 467.06C277.40999999999997 467.45 277.09999999999997 467.77 276.71 467.77C276.32 467.77 276 467.45 276 467.06C276 466.14 276.41 465.27 277.13 464.69C277.85 464.1 278.8 463.87 279.71999999999997 464.07C280.88 464.31 281.82 465.25 282.05999999999995 466.40999999999997C282.29999999999995 467.57 281.88999999999993 468.72999999999996 280.97999999999996 469.46C280.21 470.07 279.77 470.90999999999997 279.77 471.76C279.77 472.15 279.45 472.46999999999997 279.06 472.46999999999997 " fill="#1b1815" fill-opacity="1" transform="matrix(1,0,0,1,-267,-458)"></path><path id="SvgjsPath1054" d="M278.71 476.4C278.52 476.4 278.34 476.33 278.2 476.19C278.07 476.06 278 475.88 278 475.7C278 475.51 278.07 475.33 278.21 475.2C278.46999999999997 474.93 278.93 474.93 279.2 475.19C279.34 475.33 279.40999999999997 475.51 279.40999999999997 475.7C279.40999999999997 475.88 279.34 476.06 279.2 476.19C279.07 476.33 278.89 476.4 278.71 476.4 " fill="#1b1815" fill-opacity="1" transform="matrix(1,0,0,1,-267,-458)"></path><path id="SvgjsPath1055" d="M268.41 470C268.41 475.84 273.16 480.59 279 480.59C284.84 480.59 289.59 475.84 289.59 470C289.59 464.16 284.84 459.41 279 459.41C273.16 459.41 268.41 464.16 268.41 470ZM267 470C267 463.38 272.38 458 279 458C285.62 458 291 463.38 291 470C291 476.62 285.62 482 279 482C272.38 482 267 476.62 267 470Z " fill="#1b1815" fill-opacity="1" transform="matrix(1,0,0,1,-267,-458)"></path></svg>