<svg id="SvgjsSvg1026" xmlns="http://www.w3.org/2000/svg" version="1.1" xmlns:xlink="http://www.w3.org/1999/xlink" xmlns:svgjs="http://svgjs.com/svgjs" width="18" height="18" viewBox="0 0 18 18"><title>060__life buoy</title><desc>Created with Avocode.</desc><defs id="SvgjsDefs1027"></defs><path id="SvgjsPath1028" d="M533.96 1044.87L530.5 1046.87L530 1046L533.46 1044L533.96 1044.87 " fill="#4990e2" fill-opacity="1" transform="matrix(1,0,0,1,-518,-1040)"></path><path id="SvgjsPath1029" d="M528 1044.47L530.01 1041L530.87 1041.5L528.87 1044.97L528 1044.47 " fill="#4990e2" fill-opacity="1" transform="matrix(1,0,0,1,-518,-1040)"></path><path id="SvgjsPath1030" d="M533.47 1052.87L530 1050.87L530.5 1050L533.97 1052.01L533.47 1052.87 " fill="#4990e2" fill-opacity="1" transform="matrix(1,0,0,1,-518,-1040)"></path><path id="SvgjsPath1031" d="M530 1055.96L528 1052.5L528.87 1052L530.87 1055.46L530 1055.96 " fill="#4990e2" fill-opacity="1" transform="matrix(1,0,0,1,-518,-1040)"></path><path id="SvgjsPath1032" d="M522.47 1046.87L519 1044.87L519.5 1044L522.97 1046.01L522.47 1046.87 " fill="#4990e2" fill-opacity="1" transform="matrix(1,0,0,1,-518,-1040)"></path><path id="SvgjsPath1033" d="M524 1044.96L522 1041.5L522.87 1041L524.87 1044.46L524 1044.96 " fill="#4990e2" fill-opacity="1" transform="matrix(1,0,0,1,-518,-1040)"></path><path id="SvgjsPath1034" d="M522 1055.47L524.01 1052L524.87 1052.5L522.87 1055.97L522 1055.47 " fill="#4990e2" fill-opacity="1" transform="matrix(1,0,0,1,-518,-1040)"></path><path id="SvgjsPath1035" d="M519 1052L522.46 1050L522.96 1050.87L519.5 1052.87L519 1052 " fill="#4990e2" fill-opacity="1" transform="matrix(1,0,0,1,-518,-1040)"></path><path id="SvgjsPath1036" d="M522.75 1042.01C521.02 1043.01 519.78 1044.6299999999999 519.26 1046.56C518.74 1048.5 519.01 1050.52 520.01 1052.25C521.34 1054.57 523.84 1056.01 526.51 1056.01C527.8199999999999 1056.01 529.11 1055.66 530.25 1055C533.83 1052.93 535.07 1048.33 533 1044.75C531.66 1042.44 529.17 1041 526.5 1041C525.19 1041 523.89 1041.35 522.75 1042.01ZM519.14 1052.75C518.01 1050.79 517.71 1048.5 518.29 1046.3C518.88 1044.11 520.29 1042.28 522.25 1041.1399999999999C523.54 1040.3999999999999 525.01 1039.9999999999998 526.5 1039.9999999999998C529.53 1039.9999999999998 532.35 1041.6299999999999 533.86 1044.2499999999998C536.21 1048.3099999999997 534.8100000000001 1053.5199999999998 530.75 1055.8599999999997C529.46 1056.6099999999997 527.99 1057.0099999999998 526.51 1057.0099999999998C523.48 1057.0099999999998 520.66 1055.3799999999997 519.14 1052.7499999999998Z " fill="#4990e2" fill-opacity="1" transform="matrix(1,0,0,1,-518,-1040)"></path><path id="SvgjsPath1037" d="M524.75 1045.47C523.08 1046.44 522.5 1048.58 523.47 1050.25C524.09 1051.33 525.25 1052 526.5 1052C527.11 1052 527.72 1051.84 528.25 1051.53C529.92 1050.57 530.49 1048.42 529.53 1046.75C528.91 1045.67 527.74 1045 526.49 1045C525.88 1045 525.28 1045.16 524.75 1045.47ZM522.6 1050.75C521.36 1048.6 522.1 1045.85 524.25 1044.6C524.93 1044.2099999999998 525.71 1044 526.49 1044C528.1 1044 529.59 1044.86 530.39 1046.25C531.64 1048.4 530.9 1051.16 528.75 1052.4C528.07 1052.7900000000002 527.29 1053 526.5 1053C524.9 1053 523.4 1052.14 522.6 1050.75Z " fill="#4990e2" fill-opacity="1" transform="matrix(1,0,0,1,-518,-1040)"></path></svg>