<svg id="SvgjsSvg1021" xmlns="http://www.w3.org/2000/svg" version="1.1" xmlns:xlink="http://www.w3.org/1999/xlink" xmlns:svgjs="http://svgjs.com/svgjs" width="17" height="13" viewBox="0 0 17 13"><title>093__picture</title><desc>Created with Avocode.</desc><defs id="SvgjsDefs1022"></defs><path id="SvgjsPath1023" d="M773 526.5V534.5C773 535.33 773.67 536 774.5 536H786.5C787.33 536 788 535.33 788 534.5V526.5C788 525.67 787.33 525 786.5 525H774.5C773.67 525 773 525.67 773 526.5ZM774.5 537C773.12 537 772 535.88 772 534.5V526.5C772 525.12 773.12 524 774.5 524H786.5C787.88 524 789 525.12 789 526.5V534.5C789 535.88 787.88 537 786.5 537Z " fill="#aec4db" fill-opacity="1" transform="matrix(1,0,0,1,-772,-524)"></path><path id="SvgjsPath1024" d="M788.39 533.92C785.59 533.92 784.02 533.06 782.63 532.31C781.4 531.64 780.23 531 778.29 531C778.28 531 778.28 531 778.28 531C775.0699999999999 531.01 772.79 533.71 772.77 533.74C772.67 533.86 772.53 533.92 772.39 533.92L772 533.0999999999999C772.11 532.9799999999999 774.6 530.0099999999999 778.28 529.9999999999999C778.28 529.9999999999999 778.28 529.9999999999999 778.29 529.9999999999999C780.49 529.9999999999999 781.8199999999999 530.7299999999999 783.11 531.4299999999998C784.45 532.1599999999999 785.85 532.9199999999998 788.39 532.9199999999998V533.9199999999998 " fill="#aec4db" fill-opacity="1" transform="matrix(1,0,0,1,-772,-524)"></path><path id="SvgjsPath1025" d="M785 528.5C785 528.78 785.22 529 785.5 529C785.78 529 786 528.78 786 528.5C786 528.23 785.78 528 785.5 528C785.22 528 785 528.23 785 528.5ZM784 528.5C784 527.67 784.67 527 785.5 527C786.33 527 787 527.67 787 528.5C787 529.33 786.33 530 785.5 530C784.67 530 784 529.33 784 528.5Z " fill="#aec4db" fill-opacity="1" transform="matrix(1,0,0,1,-772,-524)"></path></svg>