<svg id="SvgjsSvg1016" xmlns="http://www.w3.org/2000/svg" version="1.1" xmlns:xlink="http://www.w3.org/1999/xlink" xmlns:svgjs="http://svgjs.com/svgjs" width="17" height="13" viewBox="0 0 17 13"><title>093__picture</title><desc>Created with Avocode.</desc><defs id="SvgjsDefs1017"></defs><path id="SvgjsPath1018" d="M530 106.5V114.5C530 115.33 530.67 116 531.5 116H543.5C544.33 116 545 115.33 545 114.5V106.5C545 105.67 544.33 105 543.5 105H531.5C530.67 105 530 105.67 530 106.5ZM531.5 117C530.12 117 529 115.88 529 114.5V106.5C529 105.12 530.12 104 531.5 104H543.5C544.88 104 546 105.12 546 106.5V114.5C546 115.88 544.88 117 543.5 117Z " fill="#ffffff" fill-opacity="1" transform="matrix(1,0,0,1,-529,-104)"></path><path id="SvgjsPath1019" d="M545.39 113.92C542.59 113.92 541.02 113.06 539.63 112.31C538.4 111.64 537.23 111 535.29 111C535.28 111 535.28 111 535.28 111C532.0699999999999 111.01 529.79 113.71 529.77 113.74C529.67 113.86 529.53 113.92 529.39 113.92L529 113.10000000000001C529.11 112.98 531.6 110.01 535.28 110.00000000000001C535.28 110.00000000000001 535.28 110.00000000000001 535.29 110.00000000000001C537.49 110.00000000000001 538.8199999999999 110.73000000000002 540.11 111.43000000000002C541.45 112.16000000000003 542.85 112.92000000000002 545.39 112.92000000000002V113.92000000000002 " fill="#ffffff" fill-opacity="1" transform="matrix(1,0,0,1,-529,-104)"></path><path id="SvgjsPath1020" d="M542 108.5C542 108.78 542.22 109 542.5 109C542.78 109 543 108.78 543 108.5C543 108.23 542.78 108 542.5 108C542.22 108 542 108.23 542 108.5ZM541 108.5C541 107.67 541.67 107 542.5 107C543.33 107 544 107.67 544 108.5C544 109.33 543.33 110 542.5 110C541.67 110 541 109.33 541 108.5Z " fill="#ffffff" fill-opacity="1" transform="matrix(1,0,0,1,-529,-104)"></path></svg>