<svg id="SvgjsSvg1046" xmlns="http://www.w3.org/2000/svg" version="1.1" xmlns:xlink="http://www.w3.org/1999/xlink" xmlns:svgjs="http://svgjs.com/svgjs" width="17" height="13" viewBox="0 0 17 13"><title>093__picture</title><desc>Created with Avocode.</desc><defs id="SvgjsDefs1047"></defs><path id="SvgjsPath1048" d="M434 96.5V104.5C434 105.33 434.67 106 435.5 106H447.5C448.33 106 449 105.33 449 104.5V96.5C449 95.67 448.33 95 447.5 95H435.5C434.67 95 434 95.67 434 96.5ZM435.5 107C434.12 107 433 105.88 433 104.5V96.5C433 95.12 434.12 94 435.5 94H447.5C448.88 94 450 95.12 450 96.5V104.5C450 105.88 448.88 107 447.5 107Z " fill="#ffffff" fill-opacity="1" transform="matrix(1,0,0,1,-433,-94)"></path><path id="SvgjsPath1049" d="M449.39 103.92C446.59 103.92 445.02 103.06 443.63 102.31C442.4 101.64 441.23 101 439.29 101C439.28000000000003 101 439.28000000000003 101 439.28000000000003 101C436.07000000000005 101.01 433.79 103.71 433.77000000000004 103.74C433.67 103.86 433.53000000000003 103.92 433.39000000000004 103.92L433.00000000000006 103.10000000000001C433.11000000000007 102.98 435.6000000000001 100.01 439.28000000000003 100.00000000000001C439.28000000000003 100.00000000000001 439.28000000000003 100.00000000000001 439.29 100.00000000000001C441.49 100.00000000000001 442.82 100.73000000000002 444.11 101.43000000000002C445.45 102.16000000000003 446.85 102.92000000000002 449.39 102.92000000000002V103.92000000000002 " fill="#ffffff" fill-opacity="1" transform="matrix(1,0,0,1,-433,-94)"></path><path id="SvgjsPath1050" d="M446 98.5C446 98.78 446.22 99 446.5 99C446.78 99 447 98.78 447 98.5C447 98.23 446.78 98 446.5 98C446.22 98 446 98.23 446 98.5ZM445 98.5C445 97.67 445.67 97 446.5 97C447.33 97 448 97.67 448 98.5C448 99.33 447.33 100 446.5 100C445.67 100 445 99.33 445 98.5Z " fill="#ffffff" fill-opacity="1" transform="matrix(1,0,0,1,-433,-94)"></path></svg>