<svg id="SvgjsSvg1056" xmlns="http://www.w3.org/2000/svg" version="1.1" xmlns:xlink="http://www.w3.org/1999/xlink" xmlns:svgjs="http://svgjs.com/svgjs" width="17" height="17" viewBox="0 0 17 17"><title>Combined Shape</title><desc>Created with Avocode.</desc><defs id="SvgjsDefs1057"></defs><path id="SvgjsPath1058" d="M23 99.5C23 94.81 26.81 91 31.5 91C36.19 91 40 94.81 40 99.5C40 104.19 36.19 108 31.5 108C26.81 108 23 104.19 23 99.5ZM24 99.5C24 103.64 27.36 107 31.5 107C35.64 107 39 103.64 39 99.5C39 95.36 35.64 92 31.5 92C27.36 92 24 95.36 24 99.5ZM31 102V100H29C28.72 100 28.5 99.78 28.5 99.5C28.5 99.22 28.72 99 29 99H31V97C31 96.72 31.22 96.5 31.5 96.5C31.78 96.5 32 96.72 32 97V99H34C34.28 99 34.5 99.22 34.5 99.5C34.5 99.78 34.28 100 34 100H32V102C32 102.28 31.78 102.5 31.5 102.5C31.22 102.5 31 102.28 31 102Z " fill="#ffffff" fill-opacity="1" transform="matrix(1,0,0,1,-23,-91)"></path></svg>