<svg id="SvgjsSvg1016" xmlns="http://www.w3.org/2000/svg" version="1.1" xmlns:xlink="http://www.w3.org/1999/xlink" xmlns:svgjs="http://svgjs.com/svgjs" width="24" height="24" viewBox="0 0 24 24"><title>082__setting_cog</title><desc>Created with Avocode.</desc><defs id="SvgjsDefs1017"></defs><path id="SvgjsPath1018" d="M446.41 352.53C446.41 353.7 447.36 354.65 448.53000000000003 354.65C449.70000000000005 354.65 450.65000000000003 353.7 450.65000000000003 352.53C450.65000000000003 351.35999999999996 449.70000000000005 350.40999999999997 448.53000000000003 350.40999999999997C447.36 350.40999999999997 446.41 351.35999999999996 446.41 352.53ZM445 352.53C445 350.58 446.58 349 448.53 349C450.46999999999997 349 452.05999999999995 350.58 452.05999999999995 352.53C452.05999999999995 354.47999999999996 450.46999999999997 356.05999999999995 448.53 356.05999999999995C446.58 356.05999999999995 445 354.47999999999996 445 352.53Z " fill="#1b1815" fill-opacity="1" transform="matrix(1,0,0,1,-437,-341)"></path><path id="SvgjsPath1019" d="M445.4 359.95C445.98999999999995 360.26 446.60999999999996 360.49 447.26 360.64C447.58 360.71 447.81 360.99 447.81 361.33V363.34999999999997C447.81 363.47999999999996 447.92 363.59 448.05 363.59H449.95C450.08 363.59 450.19 363.47999999999996 450.19 363.34999999999997V362.03C450.19 361.32 450.66 360.69 451.37 360.46999999999997C451.79 360.33 452.2 360.15999999999997 452.6 359.95C453.24 359.62 454.05 359.74 454.55 360.22999999999996L455.47 361.15999999999997C455.59000000000003 361.28 455.69000000000005 361.28 455.82000000000005 361.15999999999997L457.16 359.82C457.25 359.71999999999997 457.25 359.56 457.16 359.46999999999997L456.23 358.53999999999996C455.72 358.03999999999996 455.61 357.26 455.95000000000005 356.59999999999997C456.16 356.21 456.33000000000004 355.78999999999996 456.47 355.36999999999995C456.69000000000005 354.66999999999996 457.32000000000005 354.18999999999994 458.03000000000003 354.18999999999994H459.35C459.48 354.18999999999994 459.59000000000003 354.0799999999999 459.59000000000003 353.94999999999993V352.04999999999995C459.59000000000003 351.91999999999996 459.48 351.80999999999995 459.35 351.80999999999995H458.03000000000003C457.32000000000005 351.80999999999995 456.69000000000005 351.3299999999999 456.47 350.62999999999994C456.33000000000004 350.2099999999999 456.16 349.78999999999996 455.95000000000005 349.3999999999999C455.61000000000007 348.7399999999999 455.72 347.9599999999999 456.23 347.4599999999999L457.16 346.5299999999999C457.25 346.43999999999994 457.25 346.2799999999999 457.16 346.1799999999999L455.82000000000005 344.8399999999999C455.69000000000005 344.7199999999999 455.59000000000003 344.7199999999999 455.47 344.8399999999999L454.54 345.7699999999999C454.05 346.25999999999993 453.24 346.37999999999994 452.6 346.0499999999999C452.20000000000005 345.8399999999999 451.79 345.6699999999999 451.37 345.5399999999999C450.67 345.3099999999999 450.19 344.6799999999999 450.19 343.9699999999999V342.6499999999999C450.19 342.5199999999999 450.08 342.4099999999999 449.95 342.4099999999999H448.05C447.92 342.4099999999999 447.81 342.5199999999999 447.81 342.6499999999999V343.9699999999999C447.81 344.6799999999999 447.33 345.3099999999999 446.63 345.5399999999999C446.21 345.6699999999999 445.8 345.8399999999999 445.4 346.0499999999999C444.76 346.3799999999999 443.95 346.2599999999999 443.45 345.7699999999999L442.53 344.8399999999999C442.40999999999997 344.7199999999999 442.30999999999995 344.7199999999999 442.19 344.8399999999999L440.84 346.1799999999999C440.75 346.2799999999999 440.75 346.4399999999999 440.84 346.5299999999999L441.77 347.4599999999999C442.28 347.9599999999999 442.39 348.7399999999999 442.04999999999995 349.3999999999999C441.84 349.7899999999999 441.66999999999996 350.2099999999999 441.53 350.62999999999994C441.30999999999995 351.3299999999999 440.67999999999995 351.80999999999995 439.96999999999997 351.80999999999995H438.65C438.52 351.80999999999995 438.40999999999997 351.91999999999996 438.40999999999997 352.04999999999995V353.94999999999993C438.40999999999997 354.0799999999999 438.52 354.18999999999994 438.65 354.18999999999994H439.96999999999997C440.67999999999995 354.18999999999994 441.30999999999995 354.66999999999996 441.53 355.36999999999995C441.66999999999996 355.78999999999996 441.84 356.2099999999999 442.04999999999995 356.59999999999997C442.38999999999993 357.26 442.28 358.03999999999996 441.77 358.53999999999996L440.84 359.46999999999997C440.75 359.55999999999995 440.75 359.71999999999997 440.84 359.82L442.17999999999995 361.15999999999997C442.30999999999995 361.28 442.40999999999997 361.28 442.53 361.15999999999997L443.46 360.22999999999996C443.76 359.92999999999995 444.16999999999996 359.75999999999993 444.60999999999996 359.75999999999993C444.87999999999994 359.75999999999993 445.15 359.8299999999999 445.4 359.94999999999993ZM448.05 365C447.14 365 446.40000000000003 364.26 446.40000000000003 363.35V361.87C445.83000000000004 361.7 445.28000000000003 361.48 444.75000000000006 361.21C444.65000000000003 361.15 444.53000000000003 361.15999999999997 444.46000000000004 361.22999999999996L443.53000000000003 362.15999999999997C442.90000000000003 362.78 441.81 362.78 441.19000000000005 362.15999999999997L439.84000000000003 360.80999999999995C439.20000000000005 360.16999999999996 439.20000000000005 359.11999999999995 439.84000000000003 358.46999999999997L440.77000000000004 357.54999999999995C440.86 357.46 440.84000000000003 357.3299999999999 440.79 357.24999999999994C440.55 356.78999999999996 440.35 356.29999999999995 440.19 355.79999999999995C440.16 355.71 440.09 355.59999999999997 439.96999999999997 355.59999999999997H438.65C437.73999999999995 355.59999999999997 437 354.85999999999996 437 353.95V352.05C437 351.14 437.74 350.40000000000003 438.65 350.40000000000003H439.96999999999997C440.09 350.40000000000003 440.15999999999997 350.29 440.19 350.20000000000005C440.35 349.70000000000005 440.55 349.21000000000004 440.79 348.75000000000006C440.84000000000003 348.6700000000001 440.86 348.5400000000001 440.77000000000004 348.45000000000005L439.84000000000003 347.53000000000003C439.20000000000005 346.88000000000005 439.20000000000005 345.83000000000004 439.84000000000003 345.19000000000005L441.19000000000005 343.84000000000003C441.81000000000006 343.22 442.90000000000003 343.22 443.53000000000003 343.84000000000003L444.45000000000005 344.77000000000004C444.53000000000003 344.84000000000003 444.65000000000003 344.85 444.75000000000006 344.79C445.2200000000001 344.55 445.71000000000004 344.35 446.20000000000005 344.19C446.29 344.16 446.40000000000003 344.09 446.40000000000003 343.96999999999997V342.65C446.40000000000003 341.73999999999995 447.14000000000004 341 448.05 341H449.95C450.86 341 451.59999999999997 341.74 451.59999999999997 342.65V343.96999999999997C451.59999999999997 344.09 451.71 344.15999999999997 451.79999999999995 344.19C452.28999999999996 344.35 452.78 344.55 453.24999999999994 344.79C453.35999999999996 344.85 453.47999999999996 344.84000000000003 453.54999999999995 344.77000000000004L454.46999999999997 343.84000000000003C455.09999999999997 343.22 456.19 343.22 456.80999999999995 343.84000000000003L458.15999999999997 345.19000000000005C458.79999999999995 345.83000000000004 458.79999999999995 346.88000000000005 458.15999999999997 347.53000000000003L457.22999999999996 348.45000000000005C457.14 348.54 457.15999999999997 348.6700000000001 457.21 348.75000000000006C457.45 349.21000000000004 457.65 349.70000000000005 457.81 350.20000000000005C457.84 350.29 457.92 350.40000000000003 458.03000000000003 350.40000000000003H459.35C460.26000000000005 350.40000000000003 461 351.14000000000004 461 352.05V353.95C461 354.86 460.26 355.59999999999997 459.35 355.59999999999997H458.03000000000003C457.92 355.59999999999997 457.84000000000003 355.71 457.81 355.79999999999995C457.65 356.29999999999995 457.45 356.78999999999996 457.21 357.24999999999994C457.15999999999997 357.3299999999999 457.14 357.4599999999999 457.22999999999996 357.54999999999995L458.15999999999997 358.46999999999997C458.79999999999995 359.11999999999995 458.79999999999995 360.16999999999996 458.15999999999997 360.80999999999995L456.80999999999995 362.15999999999997C456.18999999999994 362.78 455.09999999999997 362.78 454.46999999999997 362.15999999999997L453.54999999999995 361.22999999999996C453.47999999999996 361.15999999999997 453.35999999999996 361.15 453.24999999999994 361.21C452.7799999999999 361.45 452.28999999999996 361.65 451.79999999999995 361.81C451.71 361.84 451.59999999999997 361.92 451.59999999999997 362.03000000000003V363.35C451.59999999999997 364.26000000000005 450.85999999999996 365 449.95 365Z " fill="#1b1815" fill-opacity="1" transform="matrix(1,0,0,1,-437,-341)"></path></svg>