<svg id="SvgjsSvg1007" xmlns="http://www.w3.org/2000/svg" version="1.1" xmlns:xlink="http://www.w3.org/1999/xlink" xmlns:svgjs="http://svgjs.com/svgjs" width="14" height="17" viewBox="0 0 14 17"><title>103__user</title><desc>Created with Avocode.</desc><defs id="SvgjsDefs1008"></defs><path id="SvgjsPath1009" d="M1328 30.5C1328 32.43 1329.35 34 1331 34C1332.65 34 1334 32.43 1334 30.5C1334 28.57 1332.65 27 1331 27C1329.35 27 1328 28.57 1328 30.5ZM1327 30.5C1327 28.02 1328.79 26 1331 26C1333.21 26 1335 28.02 1335 30.5C1335 32.98 1333.21 35 1331 35C1328.79 35 1327 32.98 1327 30.5Z " fill="#ffffff" fill-opacity="1" transform="matrix(1,0,0,1,-1324,-26)"></path><path id="SvgjsPath1010" d="M1336.75 42.26C1336.48 42.26 1336.25 42.03 1336.25 41.76V38.37C1336.25 36.51 1334.74 35 1332.88 35H1332.5C1332.22 35 1332 34.78 1332 34.5C1332 34.22 1332.22 34 1332.5 34H1332.88C1335.2900000000002 34 1337.25 35.96 1337.25 38.37V41.76C1337.25 42.03 1337.03 42.26 1336.75 42.26 " fill="#ffffff" fill-opacity="1" transform="matrix(1,0,0,1,-1324,-26)"></path><path id="SvgjsPath1011" d="M1324.5 42.26C1324.22 42.26 1324 42.03 1324 41.76V38.37C1324 35.959999999999994 1325.96 34 1328.37 34H1328.75C1329.03 34 1329.25 34.22 1329.25 34.5C1329.25 34.78 1329.03 35 1328.75 35H1328.37C1326.51 35 1325 36.51 1325 38.37V41.76C1325 42.03 1324.78 42.26 1324.5 42.26 " fill="#ffffff" fill-opacity="1" transform="matrix(1,0,0,1,-1324,-26)"></path></svg>